{"title":"God Of Gamblers [1989] (Eng Dubbed)-AKHiUgO","uid":5095952,"size":1468012567,"categoryP":"video","categoryS":"movies","magnet":"?xt=urn:btih:71c5b53cb33ffbeb96a600e45e353943c928cabf&amp;dn=God+Of+Gamblers+%5B1989%5D+%28Eng+Dubbed%29-AKHiUgO&amp;tr=udp%3A%2F%2Ftracker.openbittorrent.com%3A80&amp;tr=udp%3A%2F%2Fopen.demonii.com%3A1337&amp;tr=udp%3A%2F%2Ftracker.coppersurfer.tk%3A6969&amp;tr=udp%3A%2F%2Fexodus.desync.com%3A6969","seeders":11,"leechers":0,"uploader":"akhiugo","files":-1,"time":1253567888,"description":"God Of Gamblers [1989] (Eng Dubbed)-AKHiUgO\n\n\nDo San (the God of gamblers) is a legendary gambler helped by his supernatural abilities. He undertakes to help a friend pay a debt by beating his friend's advisory at the card table. Despite being assigned a bodyguard Do San has a freak accident which leaves him with partial memory loss and at a mental stage of a child. The small time hustler Knife, his side-kick and his girl friend, being responsible for the accident takes care of the retarded Do San. After some time they discover that he has not lost all of his powers and takes him on a round at the local gambling halls. After being chased by both Knife's loan-shark and enemies closer to the home of Do San, a final showdown at the card tables may take place.\n\n\nGeneral\nFormat/Info                      : Audio Video Interleave\nFile size                        : 1.37 GiB\nDuration                         : 2h 0mn\nOverall bit rate                 : 1 621 Kbps\n\nVideo\nFormat                           : MPEG-4 Visual\nCodec ID/Hint                    : XviD\nDuration                         : 2h 0mn\nBit rate                         : 1 435 Kbps\nWidth                            : 592 pixels\nHeight                           : 448 pixels\nDisplay aspect ratio             : 4/3\nFrame rate                       : 25.000 fps\nResolution                       : 24 bits\nColorimetry                      : 4:2:0\nScan type                        : Progressive\nBits/(Pixel*Frame)               : 0.216\nStream size                      : 1.21 GiB (89%)\n\nAudio\nFormat                           : MP3\nDuration                         : 2h 0mn\nBit rate mode                    : Variable\nBit rate                         : 173 Kbps\nMinimum bit rate                 : 192 Kbps\nChannel(s)                       : 2 channels\nSampling rate                    : 48.0 KHz\nResolution                       : 16 bits\nStream size                      : 149 MiB (11%)\nEncoding settings                : ABR\nLanguage                         : English\n\nScreens: &lt;a href=&quot;\nhttp://img132.imageshack.us/img132/3905/vlcsnap1850445.png&quot; rel=&quot;nofollow&quot; target=&quot;_NEW&quot;&gt;\nhttp://img132.imageshack.us/img132/3905/vlcsnap1850445.png&lt;/a&gt;\n &lt;a href=&quot;\nhttp://img62.imageshack.us/img62/2501/vlcsnap1850544.png&quot; rel=&quot;nofollow&quot; target=&quot;_NEW&quot;&gt;\nhttp://img62.imageshack.us/img62/2501/vlcsnap1850544.png&lt;/a&gt;\n &lt;a href=&quot;\nhttp://img62.imageshack.us/img62/1337/vlcsnap1850635.png&quot; rel=&quot;nofollow&quot; target=&quot;_NEW&quot;&gt;\nhttp://img62.imageshack.us/img62/1337/vlcsnap1850635.png&lt;/a&gt;\n\n\n\nPLEASE HELP YOUR FELLOW PIRATES BY SEEDING AFTER DOWNLOAD!\n\n","torrent":{"xt":"urn:btih:71c5b53cb33ffbeb96a600e45e353943c928cabf","amp;dn":"God+Of+Gamblers+%5B1989%5D+%28Eng+Dubbed%29-AKHiUgO","amp;tr":["udp%3A%2F%2Ftracker.openbittorrent.com%3A80","udp%3A%2F%2Fopen.demonii.com%3A1337","udp%3A%2F%2Ftracker.coppersurfer.tk%3A6969","udp%3A%2F%2Fexodus.desync.com%3A6969"],"infoHash":"71c5b53cb33ffbeb96a600e45e353943c928cabf","infoHashBuffer":{"type":"Buffer","data":[113,197,181,60,179,63,251,235,150,166,0,228,94,53,57,67,201,40,202,191]},"announce":[],"urlList":[]}}